<?xml version="1.0" encoding="UTF-8" standalone="no"?>
<!DOCTYPE svg PUBLIC "-//W3C//DTD SVG 1.1//EN"
 "http://www.w3.org/Graphics/SVG/1.1/DTD/svg11.dtd">
<!-- Generated by graphviz version 12.2.0 (20241103.1931)
 -->
<!-- Title: age_le_55_dfg Pages: 1 -->
<svg width="1361pt" height="318pt"
 viewBox="3.60 3.60 1357.22 314.48" xmlns="http://www.w3.org/2000/svg" xmlns:xlink="http://www.w3.org/1999/xlink">
<g id="graph0" class="graph" transform="scale(1 1) rotate(0) translate(7.6 310.48)">
<title>age_le_55_dfg</title>
<polygon fill="white" stroke="none" points="-4,4 -4,-306.88 1349.62,-306.88 1349.62,4 -4,4"/>
<text text-anchor="middle" x="672.81" y="-281.78" font-family="Times,serif" font-size="18.00">age_le_55: core directly&#45;follows graph, top 15 edges</text>
<!-- 1e consult poliklinisch -->
<g id="node1" class="node">
<title>1e consult poliklinisch</title>
<polygon fill="none" stroke="black" points="639.44,-86.76 506.42,-86.76 506.42,-66 639.44,-66 639.44,-86.76"/>
<text text-anchor="middle" x="572.93" y="-71.53" font-family="Times,serif" font-size="13.00">1e consult poliklinisch</text>
</g>
<!-- administratief tarief &#160;&#160;&#160;&#160;&#160;&#160;&#45; eerste pol -->
<g id="node3" class="node">
<title>administratief tarief &#160;&#160;&#160;&#160;&#160;&#160;&#45; eerste pol</title>
<polygon fill="none" stroke="black" points="888.33,-48.76 726.06,-48.76 726.06,-28 888.33,-28 888.33,-48.76"/>
<text text-anchor="middle" x="807.2" y="-33.53" font-family="Times,serif" font-size="13.00">administratief tarief &#45; eerst...</text>
</g>
<!-- 1e consult poliklinisch&#45;&gt;administratief tarief &#160;&#160;&#160;&#160;&#160;&#160;&#45; eerste pol -->
<g id="edge15" class="edge">
<title>1e consult poliklinisch&#45;&gt;administratief tarief &#160;&#160;&#160;&#160;&#160;&#160;&#45; eerste pol</title>
<path fill="none" stroke="black" stroke-width="3.5" d="M639.86,-65.59C667.32,-61.1 699.42,-55.85 728.06,-51.16"/>
<polygon fill="black" stroke="black" stroke-width="3.5" points="728.35,-53.6 734.86,-50.05 727.56,-48.76 728.35,-53.6"/>
<text text-anchor="middle" x="693.81" y="-60.43" font-family="Times,serif" font-size="11.00">20</text>
</g>
<!-- aanname laboratoriumonderzoek -->
<g id="node2" class="node">
<title>aanname laboratoriumonderzoek</title>
<polygon fill="none" stroke="black" points="1345.62,-22.76 1158.6,-22.76 1158.6,-2 1345.62,-2 1345.62,-22.76"/>
<text text-anchor="middle" x="1252.11" y="-7.53" font-family="Times,serif" font-size="13.00">aanname laboratoriumonderzoek</text>
</g>
<!-- aanname laboratoriumonderzoek&#45;&gt;aanname laboratoriumonderzoek -->
<g id="edge1" class="edge">
<title>aanname laboratoriumonderzoek&#45;&gt;aanname laboratoriumonderzoek</title>
<path fill="none" stroke="black" stroke-width="3.5" d="M1234.06,-23.25C1222.76,-34.77 1228.78,-47.76 1252.11,-47.76 1268.15,-47.76 1276.01,-41.62 1275.68,-34.04"/>
<polygon fill="black" stroke="black" stroke-width="3.5" points="1277.94,-33.08 1272.57,-27.96 1273.58,-35.31 1277.94,-33.08"/>
<text text-anchor="middle" x="1252.11" y="-50.81" font-family="Times,serif" font-size="11.00">74</text>
</g>
<!-- telefonisch consult -->
<g id="node16" class="node">
<title>telefonisch consult</title>
<polygon fill="none" stroke="black" points="1079.85,-22.76 967.08,-22.76 967.08,-2 1079.85,-2 1079.85,-22.76"/>
<text text-anchor="middle" x="1023.47" y="-7.53" font-family="Times,serif" font-size="13.00">telefonisch consult</text>
</g>
<!-- administratief tarief &#160;&#160;&#160;&#160;&#160;&#160;&#45; eerste pol&#45;&gt;telefonisch consult -->
<g id="edge5" class="edge">
<title>administratief tarief &#160;&#160;&#160;&#160;&#160;&#160;&#45; eerste pol&#45;&gt;telefonisch consult</title>
<path fill="none" stroke="black" stroke-width="3.5" d="M888.59,-28.62C910.33,-25.99 933.64,-23.16 954.62,-20.61"/>
<polygon fill="black" stroke="black" stroke-width="3.5" points="954.75,-23.06 961.41,-19.79 954.16,-18.2 954.75,-23.06"/>
<text text-anchor="middle" x="920.58" y="-28.43" font-family="Times,serif" font-size="11.00">28</text>
</g>
<!-- alkalische fosfatase &#45;kinetisch&#45; -->
<g id="node4" class="node">
<title>alkalische fosfatase &#45;kinetisch&#45;</title>
<polygon fill="none" stroke="black" points="661.56,-132.76 484.29,-132.76 484.29,-112 661.56,-112 661.56,-132.76"/>
<text text-anchor="middle" x="572.93" y="-117.53" font-family="Times,serif" font-size="13.00">alkalische fosfatase &#45;kinetisch&#45;</text>
</g>
<!-- natrium vlamfotometrisch -->
<g id="node11" class="node">
<title>natrium vlamfotometrisch</title>
<polygon fill="none" stroke="black" points="881.96,-132.76 732.44,-132.76 732.44,-112 881.96,-112 881.96,-132.76"/>
<text text-anchor="middle" x="807.2" y="-117.53" font-family="Times,serif" font-size="13.00">natrium vlamfotometrisch</text>
</g>
<!-- alkalische fosfatase &#45;kinetisch&#45;&#45;&gt;natrium vlamfotometrisch -->
<g id="edge14" class="edge">
<title>alkalische fosfatase &#45;kinetisch&#45;&#45;&gt;natrium vlamfotometrisch</title>
<path fill="none" stroke="black" stroke-width="3.5" d="M661.74,-122.38C680.9,-122.38 701.16,-122.38 720.25,-122.38"/>
<polygon fill="black" stroke="black" stroke-width="3.5" points="719.99,-124.83 726.99,-122.38 719.99,-119.93 719.99,-124.83"/>
<text text-anchor="middle" x="693.81" y="-125.43" font-family="Times,serif" font-size="11.00">20</text>
</g>
<!-- bloedgroep abo en rhesusfactor -->
<g id="node5" class="node">
<title>bloedgroep abo en rhesusfactor</title>
<polygon fill="none" stroke="black" points="179.52,-178.76 0,-178.76 0,-158 179.52,-158 179.52,-178.76"/>
<text text-anchor="middle" x="89.76" y="-163.53" font-family="Times,serif" font-size="13.00">bloedgroep abo en rhesusfactor</text>
</g>
<!-- rhesusfactor d &#45; centrifugeermethode &#45; e -->
<g id="node13" class="node">
<title>rhesusfactor d &#45; centrifugeermethode &#45; e</title>
<polygon fill="none" stroke="black" points="417.54,-178.76 246.27,-178.76 246.27,-158 417.54,-158 417.54,-178.76"/>
<text text-anchor="middle" x="331.91" y="-163.53" font-family="Times,serif" font-size="13.00">rhesusfactor d &#45; centrifugeer...</text>
</g>
<!-- bloedgroep abo en rhesusfactor&#45;&gt;rhesusfactor d &#45; centrifugeermethode &#45; e -->
<g id="edge12" class="edge">
<title>bloedgroep abo en rhesusfactor&#45;&gt;rhesusfactor d &#45; centrifugeermethode &#45; e</title>
<path fill="none" stroke="black" stroke-width="3.5" d="M179.84,-168.38C197.41,-168.38 215.93,-168.38 233.75,-168.38"/>
<polygon fill="black" stroke="black" stroke-width="3.5" points="233.66,-170.83 240.66,-168.38 233.66,-165.93 233.66,-170.83"/>
<text text-anchor="middle" x="211.77" y="-171.43" font-family="Times,serif" font-size="11.00">20</text>
</g>
<!-- ca&#45;125 mbv meia -->
<g id="node6" class="node">
<title>ca&#45;125 mbv meia</title>
<polygon fill="none" stroke="black" points="141.27,-20.76 38.25,-20.76 38.25,0 141.27,0 141.27,-20.76"/>
<text text-anchor="middle" x="89.76" y="-5.53" font-family="Times,serif" font-size="13.00">ca&#45;125 mbv meia</text>
</g>
<!-- ordertarief -->
<g id="node12" class="node">
<title>ordertarief</title>
<polygon fill="none" stroke="black" points="366.17,-20.76 297.65,-20.76 297.65,0 366.17,0 366.17,-20.76"/>
<text text-anchor="middle" x="331.91" y="-5.53" font-family="Times,serif" font-size="13.00">ordertarief</text>
</g>
<!-- ca&#45;125 mbv meia&#45;&gt;ordertarief -->
<g id="edge4" class="edge">
<title>ca&#45;125 mbv meia&#45;&gt;ordertarief</title>
<path fill="none" stroke="black" stroke-width="3.5" d="M141.69,-10.38C184.24,-10.38 244.35,-10.38 285.33,-10.38"/>
<polygon fill="black" stroke="black" stroke-width="3.5" points="285.1,-12.83 292.1,-10.38 285.1,-7.93 285.1,-12.83"/>
<text text-anchor="middle" x="211.77" y="-13.43" font-family="Times,serif" font-size="11.00">42</text>
</g>
<!-- creatinine -->
<g id="node7" class="node">
<title>creatinine</title>
<polygon fill="none" stroke="black" points="364.29,-132.76 299.52,-132.76 299.52,-112 364.29,-112 364.29,-132.76"/>
<text text-anchor="middle" x="331.91" y="-117.53" font-family="Times,serif" font-size="13.00">creatinine</text>
</g>
<!-- creatinine&#45;&gt;alkalische fosfatase &#45;kinetisch&#45; -->
<g id="edge13" class="edge">
<title>creatinine&#45;&gt;alkalische fosfatase &#45;kinetisch&#45;</title>
<path fill="none" stroke="black" stroke-width="3.5" d="M364.65,-122.38C392.15,-122.38 433.48,-122.38 472.01,-122.38"/>
<polygon fill="black" stroke="black" stroke-width="3.5" points="471.57,-124.83 478.57,-122.38 471.57,-119.93 471.57,-124.83"/>
<text text-anchor="middle" x="452.04" y="-125.43" font-family="Times,serif" font-size="11.00">20</text>
</g>
<!-- hemoglobine foto&#45;elektrisch -->
<g id="node8" class="node">
<title>hemoglobine foto&#45;elektrisch</title>
<polygon fill="none" stroke="black" points="171.27,-132.76 8.25,-132.76 8.25,-112 171.27,-112 171.27,-132.76"/>
<text text-anchor="middle" x="89.76" y="-117.53" font-family="Times,serif" font-size="13.00">hemoglobine foto&#45;elektrisch</text>
</g>
<!-- hemoglobine foto&#45;elektrisch&#45;&gt;creatinine -->
<g id="edge8" class="edge">
<title>hemoglobine foto&#45;elektrisch&#45;&gt;creatinine</title>
<path fill="none" stroke="black" stroke-width="3.5" d="M171.73,-122.38C210.31,-122.38 254.95,-122.38 287.12,-122.38"/>
<polygon fill="black" stroke="black" stroke-width="3.5" points="286.93,-124.83 293.93,-122.38 286.93,-119.93 286.93,-124.83"/>
<text text-anchor="middle" x="211.77" y="-125.43" font-family="Times,serif" font-size="11.00">26</text>
</g>
<!-- kalium potentiometrisch -->
<g id="node9" class="node">
<title>kalium potentiometrisch</title>
<polygon fill="none" stroke="black" points="1094.1,-132.76 952.83,-132.76 952.83,-112 1094.1,-112 1094.1,-132.76"/>
<text text-anchor="middle" x="1023.47" y="-117.53" font-family="Times,serif" font-size="13.00">kalium potentiometrisch</text>
</g>
<!-- leukocyten tellen elektronisch -->
<g id="node10" class="node">
<title>leukocyten tellen elektronisch</title>
<polygon fill="none" stroke="black" points="176.14,-224.76 3.37,-224.76 3.37,-204 176.14,-204 176.14,-224.76"/>
<text text-anchor="middle" x="89.76" y="-209.53" font-family="Times,serif" font-size="13.00">leukocyten tellen elektronisch</text>
</g>
<!-- trombocyten tellen &#45; elektronisch -->
<g id="node17" class="node">
<title>trombocyten tellen &#45; elektronisch</title>
<polygon fill="none" stroke="black" points="419.79,-224.76 244.02,-224.76 244.02,-204 419.79,-204 419.79,-224.76"/>
<text text-anchor="middle" x="331.91" y="-209.53" font-family="Times,serif" font-size="13.00">trombocyten tellen &#45; elektron...</text>
</g>
<!-- leukocyten tellen elektronisch&#45;&gt;trombocyten tellen &#45; elektronisch -->
<g id="edge9" class="edge">
<title>leukocyten tellen elektronisch&#45;&gt;trombocyten tellen &#45; elektronisch</title>
<path fill="none" stroke="black" stroke-width="3.5" d="M176.44,-214.38C194.26,-214.38 213.17,-214.38 231.44,-214.38"/>
<polygon fill="black" stroke="black" stroke-width="3.5" points="231.34,-216.83 238.34,-214.38 231.34,-211.93 231.34,-216.83"/>
<text text-anchor="middle" x="211.77" y="-217.43" font-family="Times,serif" font-size="11.00">26</text>
</g>
<!-- natrium vlamfotometrisch&#45;&gt;kalium potentiometrisch -->
<g id="edge7" class="edge">
<title>natrium vlamfotometrisch&#45;&gt;kalium potentiometrisch</title>
<path fill="none" stroke="black" stroke-width="3.5" d="M882.23,-122.38C900.98,-122.38 921.22,-122.38 940.34,-122.38"/>
<polygon fill="black" stroke="black" stroke-width="3.5" points="940.09,-124.83 947.09,-122.38 940.09,-119.93 940.09,-124.83"/>
<text text-anchor="middle" x="920.58" y="-125.43" font-family="Times,serif" font-size="11.00">27</text>
</g>
<!-- vervolgconsult poliklinisch -->
<g id="node18" class="node">
<title>vervolgconsult poliklinisch</title>
<polygon fill="none" stroke="black" points="652.19,-20.76 493.67,-20.76 493.67,0 652.19,0 652.19,-20.76"/>
<text text-anchor="middle" x="572.93" y="-5.53" font-family="Times,serif" font-size="13.00">vervolgconsult poliklinisch</text>
</g>
<!-- ordertarief&#45;&gt;vervolgconsult poliklinisch -->
<g id="edge2" class="edge">
<title>ordertarief&#45;&gt;vervolgconsult poliklinisch</title>
<path fill="none" stroke="black" stroke-width="3.5" d="M366.64,-10.38C396.32,-10.38 440.92,-10.38 480.97,-10.38"/>
<polygon fill="black" stroke="black" stroke-width="3.5" points="480.94,-12.83 487.94,-10.38 480.94,-7.93 480.94,-12.83"/>
<text text-anchor="middle" x="452.04" y="-13.43" font-family="Times,serif" font-size="11.00">64</text>
</g>
<!-- sgot &#45; asat kinetisch -->
<g id="node14" class="node">
<title>sgot &#45; asat kinetisch</title>
<polygon fill="none" stroke="black" points="148.39,-270.76 31.12,-270.76 31.12,-250 148.39,-250 148.39,-270.76"/>
<text text-anchor="middle" x="89.76" y="-255.53" font-family="Times,serif" font-size="13.00">sgot &#45; asat kinetisch</text>
</g>
<!-- sgpt &#45; alat kinetisch -->
<g id="node15" class="node">
<title>sgpt &#45; alat kinetisch</title>
<polygon fill="none" stroke="black" points="389.79,-270.76 274.02,-270.76 274.02,-250 389.79,-250 389.79,-270.76"/>
<text text-anchor="middle" x="331.91" y="-255.53" font-family="Times,serif" font-size="13.00">sgpt &#45; alat kinetisch</text>
</g>
<!-- sgot &#45; asat kinetisch&#45;&gt;sgpt &#45; alat kinetisch -->
<g id="edge11" class="edge">
<title>sgot &#45; asat kinetisch&#45;&gt;sgpt &#45; alat kinetisch</title>
<path fill="none" stroke="black" stroke-width="3.5" d="M148.89,-260.38C182.79,-260.38 225.76,-260.38 261.44,-260.38"/>
<polygon fill="black" stroke="black" stroke-width="3.5" points="261.43,-262.83 268.43,-260.38 261.43,-257.93 261.43,-262.83"/>
<text text-anchor="middle" x="211.77" y="-263.43" font-family="Times,serif" font-size="11.00">21</text>
</g>
<!-- telefonisch consult&#45;&gt;aanname laboratoriumonderzoek -->
<g id="edge6" class="edge">
<title>telefonisch consult&#45;&gt;aanname laboratoriumonderzoek</title>
<path fill="none" stroke="black" stroke-width="3.5" d="M1080.2,-12.38C1100.2,-12.38 1123.45,-12.38 1146.25,-12.38"/>
<polygon fill="black" stroke="black" stroke-width="3.5" points="1146.18,-14.83 1153.18,-12.38 1146.18,-9.93 1146.18,-14.83"/>
<text text-anchor="middle" x="1126.35" y="-15.43" font-family="Times,serif" font-size="11.00">28</text>
</g>
<!-- vervolgconsult poliklinisch&#45;&gt;administratief tarief &#160;&#160;&#160;&#160;&#160;&#160;&#45; eerste pol -->
<g id="edge3" class="edge">
<title>vervolgconsult poliklinisch&#45;&gt;administratief tarief &#160;&#160;&#160;&#160;&#160;&#160;&#45; eerste pol</title>
<path fill="none" stroke="black" stroke-width="3.5" d="M652.56,-19.86C672.16,-22.22 693.36,-24.78 713.57,-27.21"/>
<polygon fill="black" stroke="black" stroke-width="3.5" points="713.16,-29.63 720.4,-28.04 713.75,-24.77 713.16,-29.63"/>
<text text-anchor="middle" x="693.81" y="-28.27" font-family="Times,serif" font-size="11.00">61</text>
</g>
<!-- vervolgconsult poliklinisch&#45;&gt;telefonisch consult -->
<g id="edge10" class="edge">
<title>vervolgconsult poliklinisch&#45;&gt;telefonisch consult</title>
<path fill="none" stroke="black" stroke-width="3.5" d="M652.67,-5.98C689.79,-3.91 726.06,-1.88 726.06,-1.88 726.06,-1.88 888.33,-1.88 888.33,-1.88 888.33,-1.88 921.3,-4.46 954.54,-7.06"/>
<polygon fill="black" stroke="black" stroke-width="3.5" points="954.29,-9.5 961.46,-7.6 954.68,-4.62 954.29,-9.5"/>
<text text-anchor="middle" x="807.2" y="-4.93" font-family="Times,serif" font-size="11.00">23</text>
</g>
</g>
</svg>
